# xmcd CD database file
#
# Track frame offsets:
#	150
#	16513
#	29471
#	45779
#	62578
#	83864
#	109753
#	126917
#	142785
#	160496
#	184035
#	196478
#	209885
#	239700
#	262619
#	290306
#	310525
#
# Disc length: 4408 seconds
#
# Revision: 2
# Processed by: cddbd v1.5.1PL0 Copyright (c) Steve Scherf et al.
# Submitted via: CDex 1.51
#
DISCID=e2113611
DTITLE=The Poet And The Dragon - Live... Somewhere In This World
DYEAR=2004
DGENRE=Acoustic
TTITLE0=What's Happening Here
TTITLE1=Billy 2 Rivers
TTITLE2=Satellite Kid
TTITLE3=Empty World
TTITLE4=Drunk Like Me
TTITLE5=Highlights
TTITLE6=Bulletproof Poet
TTITLE7=Last Bandit
TTITLE8=How Come It Never Rains
TTITLE9=Ghetto You
TTITLE10=Errol Flynn
TTITLE11=Ballad Of Jack
TTITLE12=Princess Valium
TTITLE13=More Unchartered Heights Of Disgrace
TTITLE14=Heroine
TTITLE15=Johnny Silvers
TTITLE16=The Only Girl
EXTD=YEAR: 2004
EXTT0=
EXTT1=
EXTT2=
EXTT3=
EXTT4=
EXTT5=
EXTT6=
EXTT7=
EXTT8=
EXTT9=
EXTT10=
EXTT11=
EXTT12=
EXTT13=
EXTT14=
EXTT15=
EXTT16=
PLAYORDER=
